<svg xmlns="http://www.w3.org/2000/svg" width="570.991" height="56.958" viewBox="0 0 570.991 56.958">
  <path id="Path_60" data-name="Path 60" d="M592.156,48.141,478.55,50.294c-1.125-.416.995-.86,3.164-1.221,2.805-.47,6.3-.9,9.524-1.343l21.413-2.935C526.6,42.884,540.9,41,554.5,39.06c4.893-.7,9.687-1.617,7.469-2.473q15-.865,29.7-1.784c1.117-.068,1.732-.2,1.565-.327A7.408,7.408,0,0,0,590.9,34.2c-19.081-.487-38.733-.285-57.814.094q-10.568.209-21.087.452a24.327,24.327,0,0,0-4.093-.084l-5.154.3q-11.351.266-22.669.538,13.748-1.123,28.263-2.153c2.789-.2,1.158-.749-2.511-.6q-22.114.88-44.816,1.609,23.974-2.47,47.2-5.013c27.431-3,54-6.129,74.09-9.7.723-.129.508-.292-.526-.4a28.015,28.015,0,0,0-3.91-.055c-37.934,2.419-72.85,5.284-106.234,8.308-32.209,2.916-63.081,5.977-94.59,8.962.848-.682,3.262-1.383,5.121-2.033,16.863-5.985,47.295-11.448,78.1-16.786q5.724-.994,11.416-1.988,35.275-3.192,71.089-6.326l14.971-1.305c1.046-.106,1.255-.271.508-.4a22.549,22.549,0,0,0-3.688-.152q-22.359.785-44.62,1.6L516.6,7.923c1.631-.27-1.631-.649-4.436-.452q-20.875,1.514-41.456,3.066-27.4,1.045-54.585,2.142v-.025c2.365-1.049,5.871-2.193,4.175-3.28-.527-.437-2.568-.841-5.757-1.14-4.371-.374-10.014-.409-15.46-.341l-.832.012c5.757-.629,11.416-1.266,16.765-1.933,5.969-.755,11.775-1.753,7.779-2.738a14.364,14.364,0,0,0-3.131-.242C388.136,3.371,358.78,4.66,331.2,6.2S276.39,9.47,249.97,11.255q-37.151,2.5-72.638,5.264l-5.855.234c-17.287.684-37.037,1.584-55.824,1.092,4.844-2.207,13.544-4.307,25.686-6.2,2.283-.358-3.262-.687-5.61-.331-13.031,2.034-22.191,4.3-27.007,6.676-.24.085-.136.176.29.253a14.854,14.854,0,0,0,1.977.157c16.211.553,33.172.081,48.828-.5q-31.329,2.516-61.206,5.216C72.517,25.479,45.2,27.89,26.3,30.9c-.5.088-.573.2-.2.289a12.153,12.153,0,0,0,2.122.194c12.346.229,24.169-.142,35.6-.591s22.962-.928,34.329-1.416Q132.6,27.888,166.111,26.2c20.924-1.06,41.7-2.173,62.1-3.356-14.136,1.9-26.445,3.933-36.759,6.071q-6.7,1.339-11.726,2.755c-3.1.926-5.121,1.956-2.626,2.922a21.948,21.948,0,0,0,4.257.938l-14.678,1.453c-3.017.3,1.451.734,4.6.465l15.412-1.314c7.29.636,17.287.994,26.909,1.242-2.153.068-4.305.139-6.523.215-3.9.141-2.218.779,1.729.636,6.112-.22,12.354-.4,18.69-.54q10.861.211,21.821.32-9.883,1.292-19.391,2.612c-7.127.994-15.754,2.069-16.521,3.35-.734,1.194,8.154,2.018,19.228,2.153,5.541.055,11.133.025,16.586-.089q10.862-.2,21.593-.474c29.355-.726,58.189-1.706,87.071-2.622l8.154-.257q-24.773,2.286-50.2,4.5-35.765,2.629-70.4,5.409-35.063,2.816-68.9,5.78c-2.756.242.946.74,3.93.519q71.855-5.322,139.487-11.2,43.788-3.214,89.191-6.194-4.746.555-9.361,1.121c-1.631.2-.767.581,2.3.562,26.6-.176,51.421-1.2,75.525-2.288q37.624-1.693,73.7-3.711l4.664-.265c.946.779-5.741,1.615-9.948,2.192l-21.413,2.935L482.513,47.8c-6.1.837-14.857,1.94-8.79,3.017a23.517,23.517,0,0,0,3.669.151l97.982-1.855c-30.334,1.706-62.869,2.982-96.22,3.944-19.57.57-39.434,1.039-59.412,1.44-20.891.419-42.549.913-63.962.722-19.57-.176-39.826-1.13-48.534-3.017-1.761-.384-7.355-.05-5.594.331,7.535,1.638,23.647,2.692,40.51,3.121,21.576.55,44.164.141,65.609-.258,41.88-.777,83.467-1.822,123.064-3.424,22.157-.887,43.5-1.972,63.766-3.242,1.147-.093,1.547-.251.977-.388a18.261,18.261,0,0,0-3.423-.2ZM485.873,34.2q-10.1.785-19.831,1.62l-25.213.585q5.251-.528,10.486-1.06Q468.765,34.82,485.873,34.2Zm-8.317,2.028q-5.806.25-11.726.472l3.147-.273ZM453.6,37.811l2.919-.091-5.626.348Zm-3.262-.586q-11.612.35-23.566.583l5.235-.525,18.787-.437,4.811-.111c-1.778.166-3.523.328-5.284.49Zm-30.269-3.976c32.373-3.111,64.941-6.214,99.792-9.04,16.015-1.3,32.617-2.536,49.676-3.684-16.7,2.689-36.89,5.135-57.977,7.478q-30.986,3.454-63.6,6.759-29.258.875-59.167,1.491,15.656-1.5,31.264-3Zm-40.217,3.845q29.551-.557,58.548-1.37l-1.778.181c-2.609.263-5.235.523-7.844.784L381.27,37.779a24.562,24.562,0,0,1-3.686-.482Zm39.94.484L415.436,38c-4.485.066-9,.119-13.52.156-2.538.022-5.088.026-7.632.013Zm-8.823-12.245c-14.058,2.867-26.4,5.836-35.1,8.92-2.136.757-4.795,1.557-5.5,2.347q-20.011.36-40.364.608,3.767-1.078,7.747-2.154c9.165-2.485,19-4.933,28.67-7.391q12.868-1.711,26.012-3.4,18.918-2.43,38.211-4.829,12.509-1.171,25.131-2.327C440.144,19.809,424.7,22.526,410.968,25.332ZM373.784,37.961l-4.24.1,3.033-.283c.355.065.753.126,1.19.186Zm-52.628-5.152c-9.443,1.408-18.526,2.97-22.033,4.661q-18.566.094-37.151-.012,21.413-2.733,44.359-5.336c19.831-2.261,40.364-4.449,61.434-6.585-1.924.5-3.882.994-5.822,1.491-.31.076-.6.152-.9.227C347.267,29.076,333.812,30.916,321.157,32.809Zm30.481-3.156c-6.116,1.552-12.2,3.106-18.054,4.67q-5.529,1.468-10.682,2.959-8.431.088-16.912.141a30.871,30.871,0,0,1,3.686-1.16c3.435-.86,7.685-1.684,12.688-2.46,9.019-1.428,19.179-2.795,29.274-4.155Zm-47.05,8.433q8-.052,15.966-.131l-.147.043q-2.055.611-4.045,1.226a85.862,85.862,0,0,1-10.535-.4c-1.3-.225-1.746-.491-1.239-.747Zm14.14,2.549c.734-.268,1.549-.535,2.414-.8,1.908-.027,3.8-.065,5.626-.1q9.932-.224,19.864-.451-13.8,1.249-27.953,2.457c-1.941-.3-.8-.792.049-1.1Zm5.088-1.516-.342.008c.375-.111.734-.22,1.093-.331q1.533-.459,3.1-.918,15.191-.171,30.2-.408,5.088-.08,10.177-.166l-11.416,1.052-3.833.089c-9.606.22-19.26.465-28.98.668Zm74.106-20,8.676-.628q25.963-1.864,52.563-3.628-16.537,2.046-33.074,4.1-20.989,1.965-41.538,3.976C389.245,21.674,393.762,20.4,397.921,19.116Zm-5.5-.406q-21.788,1.587-43.169,3.235c-36.5,2.816-72.182,5.723-107.506,8.68q28.915-2.705,58.548-5.332,47.751-4.226,97.346-8.235-2.446.828-5.153,1.652Zm4.045,3.976L394.007,23q-9.459,1.209-18.918,2.427,1.957-.509,3.9-1.019,8.774-.875,17.548-1.723ZM466.6,15.232l-7.8.706,12.965-1.6ZM540.49,8.657q-29.127,2.568-58.107,5.158l22.408-3.858q17.841-.658,35.732-1.3Zm-37.33.275-2.838.487-7.616.283Zm-29.421,2.192q10.715-.408,21.446-.808l-17.466,3.008a8.061,8.061,0,0,0-1.814-.2,26.5,26.5,0,0,0-2.655.034q-36.6,2.356-71.855,4.908,2.691-.856,5.219-1.723,14.678-1.171,29.355-2.319Q454.74,12.557,473.739,11.124Zm-30.122,1.16,8.3-.331q-21.2,1.633-42.272,3.3,2.446-.9,4.648-1.807l29.29-1.156ZM400.237,8.541c5.349-.056,10.552.027,12.77.581,1.712.426,1.484.933.913,1.382a21.482,21.482,0,0,1-3.49,1.743c-.538.245-1.093.5-1.631.732q-27.284,1.112-54.324,2.26-17.939.767-35.879,1.557c12.651-1.023,24.455-2.149,35.292-3.368.811-.083,1.13-.2.838-.317a9.7,9.7,0,0,0-2.257-.235c-.937-.025-1.891-.042-2.854-.053q21.576-1.988,41.6-4.141C394.17,8.624,397.2,8.573,400.237,8.541ZM299.727,12.6q6.654-.406,13.406-.792c21.038-1.206,43.1-2.261,66.572-2.867q-14.515,1.517-29.8,2.955c-4.159.391-8.383.775-12.623,1.16-4.212.2-8.268.439-12.133.7q-12.395.8-24.137,1.7c-14.732,1.129-28.622,2.367-41.554,3.7q-7.975.547-16.113,1.07l-15.33.729c22.094-2.941,46.048-5.733,71.709-8.359ZM215.51,21.555q-28.083,1.358-55.922,2.77-38.8,1.971-77.074,4.044,48.926-4.022,99.776-7.786,32.144-2.369,65.234-4.6,14.922-.994,30.04-1.988-20.353,2.211-39.14,4.565-11.742,1.476-22.913,3Zm93.741-5.271Q325.364,15,340.808,13.615c1.134-.048,2.307-.086,3.506-.113-15.64,1.651-32.866,3.139-51.421,4.441l-13.438.61q15.167-1.095,29.8-2.264ZM322.3,7.459c29.5-1.724,60.945-3.308,95.079-3.777,1.468.808-4.713,1.577-9.687,2.162q-9,1.057-18.4,2.076l-1.451.166C367.065,8.5,347.071,9.3,328.2,10.259c-3.408.166-6.8.351-10.16.533,2.185-.21,4.371-.419,6.523-.628q16.961-1.6,34.737-3.1c2.805-.237-.946-.739-3.93-.518-47.98,3.536-99.581,6.535-153.9,8.945q58.165-4.352,120.814-8.029ZM52.376,30.535c-5.708.2-11.711.3-17.744.287,16.423-2.46,38.6-4.481,60.162-6.46q34.982-3.219,72.133-6.184,6.752-.542,13.6-1.072,16.308-.663,32.372-1.4c32.8-1.5,64.6-3.215,95.193-5.135,2.87-.181,5.708-.363,8.546-.545q-10.584,1.009-20.842,2.056c-11.546.7-22.832,1.443-34.248,2.185q-33.857,2.225-66.718,4.6c-43.739,3.147-86.207,6.49-127.728,9.939q-7.583.628-15.1,1.262c-.653.062-.992.151-.919.241A3.259,3.259,0,0,0,52.376,30.535Zm55.743-2.3q-18.69.828-37.656,1.6L66.336,30q70.8-3.895,143.4-7.436a11.849,11.849,0,0,0,2,.2c.91.036,1.926.032,2.809-.01q13.96-.805,27.561-1.671l-2.381.3-1.631.1C196.151,24,152.745,26.254,108.118,28.239Zm77.939,6.83c-8.154-1.367-.538-3.248,5.5-4.628,13.415-3.058,30.874-5.915,51.894-8.493q25.637-1.547,50.1-3.262l2.251-.166q55.074-2.485,111-4.764c-1.827.737-3.816,1.471-5.9,2.2q-14.678,1.171-29.046,2.359-68.349,5.632-133.192,11.7-26.648,2.5-52.6,5.057Zm30.627,1.716c-8.676-.22-17.939-.48-24.968-1.063,31.541-2.685,63.179-5.361,95.242-7.983,33.4-2.73,67.273-5.4,101.961-7.951q-7.339,2.137-15.363,4.249c-22.082,2.2-43.642,4.461-64.451,6.792q-26.289,2.944-50.752,6.046a16.131,16.131,0,0,0-2.805-.166c-9.435.024-18.829.135-28.067.331Q222.05,36.916,216.684,36.785Zm37.787.58-.294.038-2.74-.025Zm43.576,6.78c-14.156.422-28.393.812-42.843,1.117-9.508.2-24.463.606-32.079-.258-8.334-.948.979-2.405,6.735-3.224,7.91-1.13,16.1-2.24,24.463-3.335l2.756-.356c13.674.1,27.393.108,41.081.035-.342.663,1.924,1.3,8.611,1.589,2.385.1,4.925.156,7.5.166-1.631.484-3.262.984-3.066,1.491-.078.438,2.089.849,5.724,1.085a29.133,29.133,0,0,0,3.947-.051c13.161-1.112,26.094-2.258,38.7-3.424q10.34-.237,20.647-.479c8.154.434,18.266.374,27.382.265q-14.988,1.454-30.236,2.881-39.63,1.262-79.325,2.495Zm75.117-1.012c-2.854.2-5.724.393-8.562.59q8.154-.74,16.08-1.491l10.894-.346q-9.247.618-18.412,1.242Zm18.624-1.94q13.454-1.276,26.73-2.573,11.008-.166,21.837-.439-7.257.714-14.27,1.453-7.192.461-14.351.926Zm126.424-2.969c-23.729,1.211-47.98,2.407-73,3.318-11.479.432-23.382.737-35.5.909q6.735-.8,13.764-1.579l111.436-3.532q-8.317.447-16.7.878ZM435.659,39.8q32.829-2.086,66.457-4.042l2.838-.166,15.265-.353c19.929-.456,40.674-.881,61.027-.57q-11.122.681-22.408,1.325c-.741-.047-1.641-.059-2.479-.035Z" transform="translate(-25.359 -2.49)" fill="none" stroke="#2c24ff" stroke-miterlimit="10" stroke-width="1" opacity="0.386"/>
</svg>
