<svg xmlns="http://www.w3.org/2000/svg" width="65" height="76.502" viewBox="0 0 65 76.502">
  <g id="Layer_2" data-name="Layer 2" transform="translate(0 -2.488)">
    <g id="Layer_1" data-name="Layer 1" transform="translate(0 2.99)">
      <path id="Path_59" data-name="Path 59" d="M84.216,48.793,72.509,50.978a1.66,1.66,0,0,1,.326-1.239c.289-.477.649-.916.981-1.363L76.023,45.4c1.437-1.938,2.911-3.853,4.312-5.818a3.215,3.215,0,0,0,.77-2.509q1.546-.877,3.06-1.81a.336.336,0,0,0-.079-.612,13.63,13.63,0,0,0-5.957.1c-.726.141-1.45.3-2.173.459a.314.314,0,0,0-.422-.086l-.531.3c-.78.18-1.558.365-2.336.546q1.417-1.139,2.912-2.185c.287-.2.119-.76-.259-.612q-2.279.892-4.618,1.632,2.47-2.506,4.863-5.085A54.61,54.61,0,0,0,83.2,19.879a.336.336,0,0,0-.457-.459A82.547,82.547,0,0,0,71.8,27.848c-3.319,2.958-6.5,6.063-9.747,9.091a13.839,13.839,0,0,1,.528-2.062c1.738-6.072,4.873-11.614,8.048-17.028q.59-1.008,1.176-2.017,3.635-3.238,7.325-6.418L80.67,8.09a.336.336,0,0,0-.328-.561q-2.3.8-4.6,1.625l.686-1.16c.168-.274-.168-.659-.457-.459Q73.822,9.072,71.7,10.646q-2.823,1.06-5.625,2.173v-.025a9.013,9.013,0,0,0,.43-3.327,1.884,1.884,0,0,0-.593-1.156,2,2,0,0,0-1.593-.346l-.086.012c.593-.639,1.176-1.284,1.728-1.961a2.847,2.847,0,0,0,.8-2.778c-.052-.124-.168-.264-.323-.245a25.348,25.348,0,0,0-9.115,3.252c-2.842,1.559-5.648,3.321-8.37,5.131q-3.828,2.541-7.485,5.341l-.6.237c-1.781.694-3.816,1.607-5.752,1.107a19.189,19.189,0,0,1,2.647-6.292c.235-.363-.336-.7-.578-.336A19.7,19.7,0,0,0,34.4,18.2a.336.336,0,0,0,.234.417,7.64,7.64,0,0,0,5.031-.5q-3.228,2.553-6.307,5.292c-2.689,2.4-5.5,4.841-7.451,7.9a.336.336,0,0,0,.2.491,6.771,6.771,0,0,0,3.668-.6c1.178-.455,2.366-.941,3.537-1.437q3.549-1.512,7-3.228c2.156-1.076,4.3-2.2,6.4-3.4a37.783,37.783,0,0,0-3.788,6.159,24.592,24.592,0,0,0-1.208,2.795,5.221,5.221,0,0,0-.271,2.964,3.025,3.025,0,0,0,.439.951L40.374,37.47c-.311.308.15.744.474.472l1.588-1.333a6.845,6.845,0,0,0,2.773,1.26c-.222.069-.444.141-.672.218-.4.143-.229.79.178.645a15.876,15.876,0,0,1,1.926-.548c.746.143,1.5.249,2.248.324q-1.018,1.311-2,2.65a6.857,6.857,0,0,0-1.7,3.4,2.091,2.091,0,0,0,1.981,2.185,5.724,5.724,0,0,0,1.709-.091c.746-.133,1.489-.3,2.225-.481,3.025-.736,6-1.731,8.972-2.66l.84-.26q-2.553,2.319-5.173,4.563Q52.058,50.48,48.489,53.3q-3.613,2.857-7.1,5.863c-.284.245.1.751.4.526q7.4-5.4,14.373-11.362,4.512-3.26,9.191-6.283-.489.563-.965,1.138c-.168.2-.079.59.237.57a23.137,23.137,0,0,0,7.782-2.321q3.877-1.717,7.594-3.764l.481-.269c.1.79-.592,1.638-1.025,2.223L77.255,42.6l-4.337,5.848c-.628.849-1.531,1.968-.906,3.06a.346.346,0,0,0,.378.153l10.1-1.882a46.847,46.847,0,0,1-9.915,4c-2.017.578-4.063,1.054-6.122,1.46a23.737,23.737,0,0,1-6.591.733,5.936,5.936,0,0,1-5-3.06c-.181-.39-.758-.05-.576.336a6.164,6.164,0,0,0,4.174,3.166,16.029,16.029,0,0,0,6.761-.262A66.45,66.45,0,0,0,77.9,52.679a41.507,41.507,0,0,0,6.571-3.289.336.336,0,0,0-.252-.6ZM73.264,34.654q-1.04.8-2.043,1.644l-2.6.593q.541-.536,1.081-1.076Q71.5,35.281,73.264,34.654Zm-.857,2.057q-.6.254-1.208.479l.324-.277Zm-2.469,1.6.3-.092-.58.353Zm-.336-.595q-1.2.355-2.428.592l.539-.533,1.936-.444.5-.113c-.183.168-.363.333-.544.5Zm-3.119-4.033c3.336-3.156,6.692-6.3,10.283-9.17,1.65-1.319,3.361-2.573,5.119-3.737a54.4,54.4,0,0,1-5.974,7.586q-3.193,3.5-6.554,6.856-3.015.887-6.1,1.512,1.613-1.521,3.221-3.048Zm-4.144,3.9q3.045-.565,6.033-1.39l-.183.183c-.269.267-.539.531-.808.795l-4.9,1.107a1.139,1.139,0,0,1-.38-.489Zm4.115.491-.449.434c-.462.067-.928.121-1.393.158a5.842,5.842,0,0,1-.786.013Zm-.909-12.422A53.308,53.308,0,0,0,61.929,34.7a13.2,13.2,0,0,0-.566,2.381c-1.375.244-2.763.455-4.159.617q.388-1.094.8-2.185c.944-2.521,1.958-5,2.954-7.5q1.326-1.736,2.68-3.452,1.949-2.465,3.937-4.9,1.289-1.188,2.59-2.361C68.552,20.052,66.96,22.808,65.545,25.655ZM61.714,38.467l-.437.1.313-.287a1.654,1.654,0,0,0,.123.188ZM56.291,33.24a13.7,13.7,0,0,0-2.27,4.729,36.355,36.355,0,0,1-3.828-.012q2.206-2.773,4.571-5.413,3.065-3.441,6.33-6.68c-.2.5-.4,1.008-.6,1.512-.032.077-.062.155-.092.23C58.982,29.453,57.6,31.32,56.291,33.24Zm3.141-3.2c-.63,1.575-1.257,3.151-1.86,4.737q-.57,1.489-1.1,3-.869.089-1.743.143a9.746,9.746,0,0,1,.38-1.176,14.541,14.541,0,0,1,1.307-2.5c.929-1.449,1.976-2.835,3.016-4.215Zm-4.848,8.555c.55-.035,1.1-.081,1.645-.133l-.015.044q-.212.62-.417,1.244a1.181,1.181,0,0,1-1.086-.4,1.076,1.076,0,0,1-.128-.758Zm1.457,2.586c.076-.272.16-.543.249-.813.2-.027.392-.066.58-.106q1.023-.227,2.047-.457-1.422,1.267-2.88,2.492a1.511,1.511,0,0,1,.005-1.121Zm.524-1.538-.035.008c.039-.113.076-.224.113-.336q.158-.465.319-.931c1.044-.116,2.082-.257,3.112-.413.35-.054.7-.111,1.049-.168L59.946,38.87l-.395.091c-.99.223-1.985.472-2.986.677ZM64.2,19.35l.894-.637q2.675-1.891,5.416-3.68-1.7,2.075-3.408,4.161-2.163,1.993-4.28,4.033C63.307,21.944,63.773,20.652,64.2,19.35Zm-.566-.412q-2.245,1.61-4.448,3.282c-3.761,2.857-7.438,5.806-11.078,8.806q2.979-2.744,6.033-5.409,4.92-4.287,10.031-8.354-.252.84-.531,1.675Zm.417,4.033-.254.318q-.975,1.227-1.949,2.462.2-.516.4-1.033.9-.887,1.808-1.748Zm7.226-7.562-.8.716,1.336-1.618Zm7.614-6.67q-3,2.6-5.988,5.233l2.309-3.914q1.838-.667,3.682-1.316Zm-3.847.279-.292.494-.785.287Zm-3.032,2.223q1.1-.413,2.21-.82l-1.8,3.052a.3.3,0,0,0-.46-.168q-3.771,2.39-7.4,4.979.277-.869.538-1.748,1.512-1.188,3.025-2.353Q70.056,12.695,72.014,11.241Zm-3.1,1.176.855-.336q-2.185,1.657-4.356,3.349.252-.913.479-1.833l3.018-1.173Zm-4.47-3.8c.551-.057,1.087.027,1.316.59a2.828,2.828,0,0,1,.094,1.4c-.079.593-.227,1.176-.36,1.768-.055.249-.113.5-.168.743q-2.811,1.128-5.6,2.292-1.849.778-3.7,1.58a30.439,30.439,0,0,0,3.637-3.416.336.336,0,0,0-.146-.56,2.047,2.047,0,0,0-.294-.054q2.223-2.017,4.287-4.2C63.815,8.705,64.127,8.653,64.44,8.621ZM54.083,12.739q.686-.412,1.381-.8a28.256,28.256,0,0,1,6.86-2.909q-1.5,1.539-3.07,3c-.429.4-.864.786-1.3,1.176a9.6,9.6,0,0,0-1.25.714q-1.277.808-2.487,1.721a38.524,38.524,0,0,0-4.282,3.758q-.822.555-1.66,1.086l-1.58.739a86.583,86.583,0,0,1,7.389-8.48ZM45.4,21.823q-2.894,1.378-5.762,2.81-4,2-7.942,4.1,5.041-4.08,10.281-7.9,3.312-2.4,6.722-4.668c1.025-.672,2.055-1.358,3.1-2.017q-2.1,2.243-4.033,4.631-1.21,1.5-2.361,3.045Zm9.659-5.347q1.66-1.307,3.252-2.707a2.145,2.145,0,0,1,.361-.114,34.856,34.856,0,0,1-5.3,4.505l-1.385.618q1.563-1.111,3.07-2.3Zm1.344-8.952a27.376,27.376,0,0,1,9.8-3.831,2.9,2.9,0,0,1-1,2.193q-.928,1.072-1.9,2.106l-.15.168a24.391,24.391,0,0,0-6.146,2.2c-.351.168-.7.356-1.047.541.225-.213.45-.425.672-.637q1.748-1.62,3.579-3.142c.289-.24-.1-.749-.4-.526a84.807,84.807,0,0,1-15.859,9.075A134,134,0,0,1,56.407,7.529ZM28.6,30.933a5.393,5.393,0,0,1-1.828.291,37.841,37.841,0,0,1,6.2-6.554Q36.571,21.4,40.4,18.4q.7-.55,1.4-1.087,1.68-.672,3.336-1.417a85.031,85.031,0,0,0,9.809-5.209c.3-.183.588-.368.881-.553q-1.091,1.023-2.148,2.085c-1.19.714-2.353,1.464-3.529,2.217Q46.66,16.689,43.274,19.1c-4.507,3.193-8.883,6.584-13.162,10.083q-.781.637-1.556,1.281a.3.3,0,0,0,.039.471ZM34.339,28.6q-1.926.84-3.88,1.618l-.425.168q7.295-3.951,14.776-7.544a.366.366,0,0,0,.5.193q1.438-.817,2.84-1.7l-.245.3-.168.1A124.61,124.61,0,0,1,34.339,28.6Zm8.031,6.929c-.84-1.386-.055-3.3.566-4.7a37.333,37.333,0,0,1,5.347-8.616q2.642-1.57,5.162-3.309l.232-.168q5.675-2.521,11.437-4.833c-.188.748-.393,1.492-.608,2.233q-1.512,1.188-2.993,2.393Q54.471,24.252,47.79,30.4q-2.746,2.534-5.42,5.131Zm3.156,1.741a6.481,6.481,0,0,1-2.573-1.079c3.25-2.724,6.51-5.438,9.814-8.1,3.442-2.769,6.932-5.477,10.506-8.066q-.756,2.168-1.583,4.31c-2.275,2.235-4.5,4.526-6.641,6.89q-2.709,2.986-5.23,6.134a.294.294,0,0,0-.289-.168,16.054,16.054,0,0,0-2.892.336Q46.079,37.406,45.526,37.274Zm3.894.588-.03.039-.282-.025Zm4.49,6.878c-1.459.429-2.926.823-4.415,1.133-.98.2-2.521.615-3.306-.262-.859-.961.1-2.44.694-3.27.815-1.146,1.659-2.272,2.521-3.383l.284-.361a34.873,34.873,0,0,0,4.233.035,1.531,1.531,0,0,0,.887,1.612,2.257,2.257,0,0,0,.773.168,4.245,4.245,0,0,0-.316,1.512,1.279,1.279,0,0,0,.59,1.1.346.346,0,0,0,.407-.052c1.356-1.128,2.689-2.29,3.988-3.474q1.065-.24,2.127-.486a4.9,4.9,0,0,0,2.822.269q-1.544,1.475-3.116,2.922c-2.722.854-5.445,1.728-8.174,2.531Zm7.74-1.027c-.294.2-.59.4-.882.6q.84-.751,1.657-1.512l1.123-.351q-.953.627-1.9,1.26Zm1.919-1.968q1.386-1.294,2.754-2.61,1.134-.168,2.25-.445-.748.724-1.47,1.474-.741.467-1.479.939ZM76.6,38.734A68.272,68.272,0,0,1,69.075,42.1a17.558,17.558,0,0,1-3.658.923q.694-.815,1.418-1.6l11.483-3.583q-.857.454-1.721.891Zm-8.507,1.6q3.383-2.116,6.848-4.1l.292-.168,1.573-.358a17.214,17.214,0,0,1,6.288-.578q-1.146.691-2.309,1.344a.318.318,0,0,0-.255-.035Z" transform="translate(-21.517 -2.99)" fill="none" stroke="#2c24ff" stroke-miterlimit="10" stroke-width="1"/>
      <text id="Racheta" transform="translate(0 73)" fill="#2c24ff" font-size="16" font-family="ArialRoundedMTBold, Arial Rounded MT Bold"><tspan x="0" y="0">Dr. Note</tspan></text>
    </g>
  </g>
</svg>
