<svg xmlns="http://www.w3.org/2000/svg" width="301.587" height="181.783" viewBox="0 0 301.587 181.783">
  <path id="Path_70" data-name="Path 70" d="M324.48,148.852l-59.906,6.957c-.593-1.343.525-2.777,1.668-3.944,1.479-1.52,3.32-2.917,5.022-4.34l11.292-9.483c7.353-6.17,14.895-12.271,22.067-18.527,2.58-2.269,5.108-5.223,3.939-7.99q7.912-2.794,15.66-5.764c.589-.218.913-.633.825-1.057a1.408,1.408,0,0,0-1.23-.891c-10.062-1.573-20.425-.92-30.486.305-3.715.45-7.422.947-11.12,1.461a2.286,2.286,0,0,0-2.159-.273l-2.718.963c-3.99.573-7.972,1.161-11.954,1.739q7.25-3.628,14.9-6.957c1.471-.637.611-2.419-1.324-1.948q-11.661,2.842-23.632,5.2,12.642-7.979,24.888-16.194c14.465-9.7,28.474-19.8,39.069-31.333a.8.8,0,0,0-.278-1.284,2.548,2.548,0,0,0-2.062-.177A460.027,460.027,0,0,0,260.928,82.15c-16.985,9.419-33.264,19.308-49.879,28.952a31.572,31.572,0,0,1,2.7-6.566c8.892-19.335,24.939-36.985,41.185-54.227q3.018-3.211,6.02-6.422,18.6-10.312,37.487-20.438l7.895-4.217a.8.8,0,0,0,.268-1.3,2.265,2.265,0,0,0-1.945-.492q-11.79,2.537-23.529,5.175l3.509-3.693c.86-.872-.86-2.1-2.339-1.461q-11.008,4.891-21.861,9.906-14.448,3.377-28.784,6.92v-.08c1.247-3.388,3.1-7.085,2.2-10.6a5.768,5.768,0,0,0-3.036-3.682c-2.3-1.209-5.28-1.322-8.153-1.1l-.439.037c3.036-2.034,6.02-4.089,8.841-6.245,3.148-2.44,6.209-5.662,4.1-8.846A1.849,1.849,0,0,0,233.52,3c-16.623,1.226-32.1,5.389-46.645,10.355s-28.9,10.575-42.836,16.338q-19.59,8.092-38.3,17.007l-3.087.755c-9.116,2.21-19.53,5.116-29.437,3.527A52.578,52.578,0,0,1,86.756,30.941c1.2-1.156-1.72-2.221-2.958-1.07-6.871,6.572-11.7,13.887-14.241,21.567a.726.726,0,0,0,.153.819,1.822,1.822,0,0,0,1.043.508c8.548,1.787,17.492.262,25.748-1.605q-16.52,8.129-32.275,16.852C50.465,75.643,36.06,83.429,26.093,93.164a.726.726,0,0,0-.1.935,1.671,1.671,0,0,0,1.119.628c6.51.739,12.745-.46,18.773-1.911s12.109-3,18.1-4.576q18.163-4.816,35.835-10.28c11.034-3.425,21.99-7.021,32.748-10.842a128.614,128.614,0,0,0-19.384,19.613,68.075,68.075,0,0,0-6.183,8.9c-1.634,2.992-2.7,6.32-1.385,9.44a8.679,8.679,0,0,0,2.245,3.029q-3.853,2.333-7.74,4.693c-1.591.979.765,2.371,2.425,1.5l8.127-4.244c3.844,2.055,9.116,3.211,14.19,4.014-1.135.219-2.27.45-3.44.7-2.055.455-1.17,2.515.912,2.055,3.223-.71,6.515-1.293,9.855-1.745,3.818.455,7.654.792,11.507,1.033q-5.211,4.174-10.225,8.439c-3.758,3.211-8.307,6.684-8.712,10.821-.387,3.858,4.3,6.518,10.139,6.957a46.786,46.786,0,0,0,8.746-.289c3.818-.423,7.619-.958,11.386-1.531,15.48-2.344,30.684-5.512,45.914-8.472l4.3-.829q-13.063,7.385-26.47,14.53-18.859,8.493-37.125,17.473-18.49,9.1-36.334,18.672c-1.453.781.5,2.392,2.073,1.675q37.891-17.195,73.554-36.182,23.091-10.382,47.032-20.009-2.5,1.793-4.936,3.623c-.86.642-.4,1.878,1.213,1.814,14.026-.567,27.115-3.885,39.826-7.391q19.84-5.469,38.863-11.988l2.46-.856c.5,2.515-3.027,5.218-5.246,7.08l-11.292,9.483-22.2,18.623c-3.216,2.7-7.834,6.267-4.635,9.745a2.348,2.348,0,0,0,1.935.487l51.668-5.994a336.084,336.084,0,0,1-50.739,12.742c-10.32,1.841-20.794,3.355-31.329,4.651-11.016,1.354-22.437,2.949-33.728,2.333-10.32-.567-21-3.65-25.593-9.745-.929-1.242-3.879-.161-2.95,1.07,3.973,5.293,12.47,8.7,21.362,10.082,11.378,1.777,23.288.455,34.6-.835,22.084-2.51,44.014-5.887,64.894-11.062a280.15,280.15,0,0,0,33.625-10.473c.605-.3.816-.812.515-1.255A2.038,2.038,0,0,0,324.48,148.852Zm-56.045-45.028q-5.323,2.537-10.457,5.234l-13.3,1.889q2.769-1.707,5.53-3.425Q259.414,105.82,268.435,103.824Zm-4.386,6.55q-3.062.808-6.183,1.525l1.66-.883Zm-12.633,5.105,1.539-.294-2.967,1.124Zm-1.72-1.894q-6.123,1.129-12.427,1.884l2.761-1.7,9.907-1.413,2.537-.359c-.937.535-1.858,1.06-2.786,1.584Zm-15.961-12.844c17.071-10.05,34.244-20.074,52.622-29.2,8.445-4.2,17.2-8.193,26.2-11.9-8.806,8.686-19.453,16.59-30.572,24.157q-16.34,11.158-33.539,21.834-15.428,2.826-31.2,4.816,8.256-4.843,16.486-9.708Zm-21.207,12.421q15.583-1.8,30.873-4.426l-.937.583c-1.376.851-2.761,1.691-4.137,2.531l-25.051,3.527a4.532,4.532,0,0,1-1.944-1.557Zm21.061,1.563-2.3,1.381c-2.365.214-4.747.385-7.129.5-1.338.071-2.683.085-4.025.043Zm-4.652-39.559c-7.413,9.264-13.923,18.854-18.507,28.818-1.127,2.446-2.528,5.03-2.9,7.583-7.035.776-14.138,1.45-21.285,1.964q1.987-3.484,4.085-6.957c4.833-8.027,10.019-15.937,15.118-23.879q6.785-5.528,13.717-10.992,9.976-7.851,20.149-15.6,6.6-3.784,13.252-7.519C244.322,57.325,236.178,66.1,228.936,75.167Zm-19.608,40.8-2.236.316,1.6-.915a5.851,5.851,0,0,0,.628.6ZM181.577,99.324c-4.979,4.549-9.769,9.6-11.618,15.059q-9.79.3-19.59-.037,11.292-8.83,23.391-17.237,15.686-10.957,32.4-21.272c-1.015,1.605-2.047,3.211-3.07,4.816-.163.246-.318.492-.473.733C195.346,87.261,188.251,93.207,181.577,99.324ZM197.65,89.129c-3.225,5.014-6.433,10.034-9.52,15.086q-2.915,4.741-5.633,9.558-4.446.284-8.918.455a23.819,23.819,0,0,1,1.944-3.746,44.761,44.761,0,0,1,6.691-7.947c4.756-4.613,10.113-9.028,15.437-13.422ZM172.84,116.374q4.218-.169,8.419-.423l-.077.139q-1.084,1.975-2.133,3.96c-2.184.054-4.395-.2-5.555-1.279a2.371,2.371,0,0,1-.654-2.414Zm7.456,8.236c.387-.867.817-1.729,1.273-2.59,1.006-.086,2-.209,2.967-.337q5.237-.722,10.475-1.456-7.275,4.035-14.74,7.936c-1.023-.974-.421-2.558.026-3.57Zm2.683-4.9-.181.027c.2-.359.387-.712.576-1.07q.808-1.482,1.634-2.965c5.341-.369,10.655-.819,15.927-1.316,1.789-.171,3.578-.353,5.366-.535l-6.02,3.4-2.021.289c-5.065.712-10.156,1.5-15.282,2.157Zm39.078-64.626,4.575-2.028q13.691-6.021,27.717-11.72-8.72,6.609-17.44,13.25Q225.841,60.937,215,67.434C217.482,63.35,219.864,59.235,222.057,55.088Zm-2.9-1.311Q207.669,58.9,196.395,64.228c-19.246,9.1-38.063,18.49-56.69,28.042q15.247-8.739,30.873-17.227,25.18-13.652,51.332-26.6-1.29,2.676-2.718,5.336Zm2.133,12.844-1.3,1.011q-4.988,3.907-9.976,7.84,1.032-1.643,2.055-3.291,4.627-2.826,9.253-5.566ZM258.27,42.538l-4.111,2.28L261,39.664ZM297.236,21.3Q281.877,29.593,266.6,37.963L278.411,25.5q9.408-2.125,18.842-4.19Zm-19.685.888-1.5,1.573-4.016.915Zm-15.514,7.08q5.65-1.316,11.309-2.612l-9.21,9.718a1.329,1.329,0,0,0-.956-.646,2.355,2.355,0,0,0-1.4.111q-19.3,7.61-37.891,15.857,1.419-2.767,2.752-5.566,7.74-3.784,15.48-7.492Q252.018,33.9,262.037,29.266Zm-15.884,3.746,4.377-1.07q-11.18,5.277-22.291,10.666,1.29-2.906,2.451-5.839,7.705-1.868,15.445-3.735ZM223.278,20.923c2.821-.182,5.564.086,6.734,1.878a5.8,5.8,0,0,1,.482,4.463,44.457,44.457,0,0,1-1.84,5.63c-.284.792-.576,1.605-.86,2.365q-14.387,3.591-28.646,7.3-9.46,2.478-18.92,5.03a150.512,150.512,0,0,0,18.61-10.88.827.827,0,0,0,.442-1.024,1.535,1.535,0,0,0-1.19-.758c-.494-.08-1-.137-1.5-.171q11.378-6.422,21.938-13.379C220.079,21.191,221.678,21.025,223.278,20.923Zm-53,13.111q3.509-1.311,7.069-2.558a200.076,200.076,0,0,1,35.1-9.264q-7.654,4.9-15.712,9.547c-2.193,1.263-4.42,2.5-6.656,3.746a61.7,61.7,0,0,0-6.4,2.274q-6.536,2.574-12.728,5.48a198.868,198.868,0,0,0-21.912,11.966q-4.205,1.766-8.5,3.457l-8.084,2.355a374.482,374.482,0,0,1,37.813-27ZM125.868,62.965q-14.809,4.388-29.489,8.948Q75.92,78.281,55.736,84.976q25.8-12.994,52.614-25.152,16.95-7.653,34.4-14.867c5.246-2.141,10.518-4.324,15.841-6.422q-10.732,7.144-20.64,14.749-6.192,4.768-12.083,9.7ZM175.3,45.936q8.5-4.164,16.641-8.621a16.169,16.169,0,0,1,1.849-.364A183.323,183.323,0,0,1,166.674,51.3l-7.086,1.969q8-3.537,15.712-7.316Zm6.88-28.508c15.557-5.571,32.137-10.687,50.137-12.2.774,2.612-2.485,5.095-5.108,6.984q-4.747,3.414-9.7,6.706l-.765.535a179.446,179.446,0,0,0-31.45,7.021c-1.8.535-3.586,1.135-5.358,1.723,1.152-.68,2.3-1.354,3.44-2.028q8.944-5.159,18.318-10.007c1.479-.765-.5-2.387-2.073-1.675a544.551,544.551,0,0,1-81.156,28.9q30.672-14.061,63.707-25.939ZM39.844,91.976a43.15,43.15,0,0,1-9.357.926c8.66-7.947,20.356-14.476,31.725-20.871q18.447-10.4,38.037-19.977,3.56-1.75,7.172-3.462,8.6-2.141,17.071-4.511,25.943-7.265,50.2-16.59c1.514-.583,3.01-1.172,4.506-1.761q-5.581,3.259-10.991,6.641c-6.089,2.274-12.04,4.661-18.06,7.059q-17.853,7.187-35.182,14.861C91.9,64.458,69.5,75.258,47.609,86.4q-4,2.028-7.963,4.078a.814.814,0,0,0-.484.779A1,1,0,0,0,39.844,91.976Zm29.394-7.417q-9.855,2.676-19.857,5.154l-2.176.535q37.332-12.582,75.618-24.023a1.73,1.73,0,0,0,1.056.647,2.934,2.934,0,0,0,1.481-.032q7.361-2.6,14.534-5.4l-1.256.958-.86.326Q104.6,74.92,69.238,84.559Zm41.1,22.065c-4.3-4.415-.284-10.494,2.9-14.952A127.85,127.85,0,0,1,140.6,64.233q13.519-5,26.419-10.537l1.187-.535q29.042-8.027,58.53-15.391c-.963,2.381-2.012,4.752-3.113,7.112q-7.74,3.784-15.316,7.621-36.042,18.2-70.235,37.782-14.052,8.07-27.734,16.338Zm16.15,5.544c-4.575-.712-9.46-1.552-13.166-3.436,16.632-8.675,33.316-17.318,50.223-25.789,17.612-8.819,35.474-17.441,53.766-25.688q-3.87,6.9-8.1,13.727C197.564,78.1,186.2,85.393,175.222,92.923q-13.863,9.51-26.763,19.533a1.788,1.788,0,0,0-1.479-.535,130.246,130.246,0,0,0-14.8,1.07Q129.316,112.59,126.487,112.167Zm19.926,1.873-.155.123-1.445-.08Zm22.979,21.9c-7.465,1.365-14.972,2.622-22.592,3.607-5.014.648-12.9,1.959-16.916-.835-4.394-3.061.516-7.77,3.552-10.414,4.171-3.65,8.488-7.235,12.9-10.773l1.453-1.151c7.211.31,14.445.348,21.663.112-.181,2.141,1.015,4.212,4.541,5.132a17.71,17.71,0,0,0,3.956.535c-.86,1.563-1.72,3.179-1.617,4.816-.041,1.416,1.1,2.743,3.018,3.505a2.638,2.638,0,0,0,2.081-.166q10.41-5.386,20.407-11.062,5.452-.765,10.887-1.547c4.3,1.4,9.632,1.209,14.439.856q-7.9,4.7-15.944,9.306c-13.932,2.719-27.863,5.5-41.829,8.059ZM209,132.675c-1.5.631-3.018,1.268-4.515,1.905q4.3-2.392,8.479-4.816l5.745-1.118q-4.876,2-9.709,4.014Zm9.821-6.267q7.095-4.121,14.1-8.311,5.8-.535,11.515-1.418-3.827,2.307-7.525,4.693-3.792,1.488-7.568,2.992Zm66.666-9.59c-12.513,3.912-25.3,7.776-38.493,10.719a136.29,136.29,0,0,1-18.722,2.938q3.552-2.6,7.258-5.1l58.763-11.41q-4.386,1.445-8.806,2.836Zm-43.532,5.095q17.311-6.738,35.044-13.058l1.5-.535,8.049-1.14c10.509-1.472,21.448-2.847,32.181-1.841q-5.865,2.2-11.816,4.281a2.5,2.5,0,0,0-1.307-.112Z" transform="translate(-25.34 -2.488)" fill="none" stroke="#2c24ff" stroke-miterlimit="10" stroke-width="1"/>
</svg>
